<svg width="465" height="90" viewBox="0 0 465 90" fill="none" xmlns="http://www.w3.org/2000/svg">
<path d="M452.799 70.6812L453.712 62.0898C453.712 58.6035 452.287 55.9473 449.438 54.1211C446.615 52.2673 443.641 51.451 440.514 51.6724C437.388 51.866 435.202 52.9175 433.957 54.8267C433.32 55.7397 433.002 56.8188 433.002 58.064L432.794 69.187C432.794 70.7088 433.03 72.9639 433.5 75.9521C433.97 78.9681 434.206 81.237 434.206 82.7588C434.206 85.4427 433.445 86.7847 431.923 86.7847C430.401 86.7847 429.64 85.4842 429.64 82.8833C429.64 81.1678 429.889 78.7052 430.387 75.4956C430.885 72.286 431.162 69.8511 431.217 68.1909C431.3 66.5308 431.342 62.9891 431.342 57.5659C431.342 56.1271 430.899 54.467 430.014 52.5854C429.128 50.7039 427.731 48.1169 425.822 44.8242C423.913 41.5316 422.349 38.6263 421.132 36.1084L419.887 35.4028C419.223 36.6203 418.047 37.229 416.359 37.229L412.873 37.3535C410.493 37.3535 408.708 36.7725 407.519 35.6104L406.647 36.4404C406.73 37.4642 406.771 39.6501 406.771 42.998L406.73 53.1665C406.73 56.2101 406.785 58.4513 406.896 59.8901L407.685 65.9912C407.685 67.1256 407.297 67.6929 406.522 67.6929C405.748 67.6929 405.36 67.1672 405.36 66.1157L406.024 60.9692C406.024 59.7241 405.651 58.728 404.904 57.981C404.184 57.2616 403.23 56.9019 402.04 56.9019C400.878 56.9019 399.84 57.4137 398.927 58.4375C398.042 59.4889 397.599 60.8447 397.599 62.5049C397.599 64.165 397.903 66.4062 398.512 69.2285C399.121 72.0785 399.425 74.126 399.425 75.3711C399.425 77.972 398.498 79.2725 396.645 79.2725C394.791 79.2725 393.864 77.9997 393.864 75.4541C393.864 74.2643 394.127 72.1891 394.652 69.2285C395.206 66.2679 395.482 63.916 395.482 62.1729C395.482 60.4297 395.081 58.9909 394.279 57.8564C393.476 56.7497 392.563 56.1963 391.54 56.1963C390.516 56.1963 389.644 56.5422 388.925 57.2339C388.205 57.9533 387.846 58.8387 387.846 59.8901L388.966 69.7266C388.966 71.4144 388.344 72.2583 387.099 72.2583C385.854 72.2583 385.231 71.4006 385.231 69.6851C385.231 68.689 385.494 66.9458 386.02 64.4556C386.545 61.993 386.794 60.07 386.767 58.6865C386.739 57.3031 386.725 39.401 386.725 4.98047C386.725 3.26497 386.199 1.89535 385.148 0.871582L385.978 0.0415039C387.057 1.09294 388.427 1.61865 390.087 1.61865H427.274C433.085 1.61865 436.986 1.7985 438.979 2.1582C440.998 2.49023 442.755 2.84993 444.25 3.2373C445.771 3.62467 447.044 4.10889 448.068 4.68994C449.119 5.24333 450.171 5.94889 451.222 6.80664C452.301 7.63672 453.159 8.59131 453.795 9.67041C455.262 12.133 455.995 14.7477 455.995 17.5146C455.995 20.2816 455.774 22.5505 455.331 24.3213C454.916 26.0645 454.21 27.7108 453.214 29.2603C451.056 32.6082 447.265 34.2822 441.842 34.2822L441.51 35.2368C443.253 35.9285 444.416 36.8831 444.997 38.1006C447.431 43.4131 449.23 46.7887 450.392 48.2275C451.554 49.6387 452.633 50.7731 453.629 51.6309C454.625 52.4886 456.05 53.3602 457.904 54.2456C459.758 55.131 460.879 55.7121 461.266 55.9888C461.653 56.2378 461.847 56.4453 461.847 56.6113C461.847 59.3783 462.221 62.9338 462.968 67.2778C463.715 71.6219 464.088 74.4165 464.088 75.6616C464.088 76.9067 464.033 77.806 463.922 78.3594C463.839 78.9128 463.632 79.4523 463.3 79.978C462.968 80.5314 462.484 80.8081 461.847 80.8081C461.211 80.8081 460.727 80.3516 460.395 79.4385C460.09 78.5254 459.938 77.4048 459.938 76.0767C459.938 74.7485 460.118 72.369 460.478 68.938C460.837 65.5347 461.017 62.9614 461.017 61.2183C461.017 57.7596 459.896 56.0303 457.655 56.0303C456.549 56.0303 455.718 56.224 455.165 56.6113C454.639 56.9987 454.376 57.7873 454.376 58.9771C454.376 60.1945 454.625 62.1175 455.124 64.7461C455.622 67.3747 455.871 69.353 455.871 70.6812C455.871 72.0369 455.359 72.7148 454.335 72.7148C453.311 72.7148 452.799 72.0369 452.799 70.6812ZM425.158 15.3979L415.363 15.6885C411.351 15.6885 408.736 15.0936 407.519 13.9038L406.647 14.6924C407.754 15.7715 408.307 17.1549 408.307 18.8428V21.6235C408.307 23.2837 407.754 24.6672 406.647 25.7739L407.519 26.604C408.708 25.3866 411.171 24.7778 414.906 24.7778L425.407 25.1514C428.201 25.1514 430.36 24.7917 431.881 24.0723C433.431 23.3252 434.206 21.9694 434.206 20.0049C434.206 18.7598 433.777 17.7913 432.919 17.0996C432.061 16.3802 431.024 15.9237 429.806 15.73C428.589 15.5086 427.039 15.3979 425.158 15.3979Z" fill="white"/>
<path d="M345.754 63.7915L346.045 59.8071C346.045 59.1154 345.713 58.5758 345.049 58.1885C344.384 57.8288 343.665 57.6489 342.89 57.6489C342.116 57.6489 341.424 57.8564 340.815 58.2715C340.206 58.6865 339.902 59.2814 339.902 60.0562V69.6021C339.902 70.9855 340.193 73.0192 340.774 75.7031C341.355 78.387 341.645 80.2962 341.645 81.4307C341.645 82.5928 341.396 83.5474 340.898 84.2944C340.4 85.0415 339.708 85.415 338.823 85.415C337.965 85.415 337.315 85.0277 336.872 84.2529C336.43 83.4782 336.208 82.4683 336.208 81.2231C336.208 79.978 336.526 77.8198 337.163 74.7485C337.799 71.6772 338.117 69.2977 338.117 67.6099C338.117 60.7756 336.845 57.3584 334.299 57.3584C330.868 57.3584 329.153 57.2201 329.153 56.9434V57.0264C329.153 58.9355 329.568 61.7301 330.398 65.4102C331.255 69.1178 331.684 71.7741 331.684 73.3789C331.684 74.9837 331.394 76.298 330.813 77.3218C330.232 78.3732 329.332 78.8989 328.115 78.8989C326.925 78.8989 325.984 78.4009 325.293 77.4048C324.629 76.4087 324.297 75.1082 324.297 73.5034C324.297 71.9263 324.698 69.2008 325.5 65.3271C326.303 61.4811 326.704 58.562 326.704 56.5698C320.146 54.4946 315.207 51.1051 311.887 46.4014C308.594 41.6976 306.948 35.887 306.948 28.9697C306.948 14.637 314.17 5.58919 328.613 1.82617C333.289 0.608724 338.117 0 343.098 0C348.106 0 352.353 0.276693 355.84 0.830078C359.354 1.38346 362.743 2.36572 366.008 3.77686C369.301 5.16032 372.095 6.93115 374.392 9.08936C376.716 11.2199 378.57 13.9868 379.953 17.3901C381.337 20.7658 382.029 24.6257 382.029 28.9697C382.029 37.8239 379.538 44.6859 374.558 49.5557C369.577 54.3978 362.577 57.3722 353.557 58.479C353.446 58.6727 353.391 58.9771 353.391 59.3921L353.598 61.6748C353.598 63.0859 353.211 63.7915 352.436 63.7915C351.661 63.7915 351.274 63.1136 351.274 61.7578L351.399 59.4336C351.399 58.6035 350.804 58.1885 349.614 58.1885C349.503 58.4375 349.448 58.9079 349.448 59.5996L349.655 63.6255C349.655 64.4556 349.503 65.258 349.199 66.0327C348.895 66.8075 348.383 67.1948 347.663 67.1948C346.39 67.1948 345.754 66.0604 345.754 63.7915ZM330.066 29.0112C330.066 39.1382 334.88 44.2017 344.509 44.2017C354.138 44.2017 358.952 39.1382 358.952 29.0112C358.952 24.3628 357.707 20.8073 355.217 18.3447C352.727 15.8822 349.157 14.6509 344.509 14.6509C339.861 14.6509 336.291 15.8822 333.801 18.3447C331.311 20.8073 330.066 24.3628 330.066 29.0112Z" fill="white"/>
<path d="M298.225 70.6812L299.139 62.0898C299.139 58.6035 297.714 55.9473 294.864 54.1211C292.041 52.2673 289.067 51.451 285.94 51.6724C282.814 51.866 280.628 52.9175 279.383 54.8267C278.746 55.7397 278.428 56.8188 278.428 58.064L278.221 69.187C278.221 70.7088 278.456 72.9639 278.926 75.9521C279.397 78.9681 279.632 81.237 279.632 82.7588C279.632 85.4427 278.871 86.7847 277.349 86.7847C275.827 86.7847 275.066 85.4842 275.066 82.8833C275.066 81.1678 275.315 78.7052 275.813 75.4956C276.311 72.286 276.588 69.8511 276.643 68.1909C276.726 66.5308 276.768 62.9891 276.768 57.5659C276.768 56.1271 276.325 54.467 275.44 52.5854C274.554 50.7039 273.157 48.1169 271.248 44.8242C269.339 41.5316 267.775 38.6263 266.558 36.1084L265.313 35.4028C264.649 36.6203 263.473 37.229 261.785 37.229L258.299 37.3535C255.919 37.3535 254.135 36.7725 252.945 35.6104L252.073 36.4404C252.156 37.4642 252.198 39.6501 252.198 42.998L252.156 53.1665C252.156 56.2101 252.211 58.4513 252.322 59.8901L253.111 65.9912C253.111 67.1256 252.723 67.6929 251.949 67.6929C251.174 67.6929 250.787 67.1672 250.787 66.1157L251.451 60.9692C251.451 59.7241 251.077 58.728 250.33 57.981C249.611 57.2616 248.656 56.9019 247.466 56.9019C246.304 56.9019 245.267 57.4137 244.353 58.4375C243.468 59.4889 243.025 60.8447 243.025 62.5049C243.025 64.165 243.33 66.4062 243.938 69.2285C244.547 72.0785 244.851 74.126 244.851 75.3711C244.851 77.972 243.925 79.2725 242.071 79.2725C240.217 79.2725 239.29 77.9997 239.29 75.4541C239.29 74.2643 239.553 72.1891 240.079 69.2285C240.632 66.2679 240.909 63.916 240.909 62.1729C240.909 60.4297 240.507 58.9909 239.705 57.8564C238.903 56.7497 237.989 56.1963 236.966 56.1963C235.942 56.1963 235.07 56.5422 234.351 57.2339C233.632 57.9533 233.272 58.8387 233.272 59.8901L234.392 69.7266C234.392 71.4144 233.77 72.2583 232.525 72.2583C231.28 72.2583 230.657 71.4006 230.657 69.6851C230.657 68.689 230.92 66.9458 231.446 64.4556C231.971 61.993 232.22 60.07 232.193 58.6865C232.165 57.3031 232.151 39.401 232.151 4.98047C232.151 3.26497 231.626 1.89535 230.574 0.871582L231.404 0.0415039C232.483 1.09294 233.853 1.61865 235.513 1.61865H272.701C278.511 1.61865 282.413 1.7985 284.405 2.1582C286.425 2.49023 288.182 2.84993 289.676 3.2373C291.197 3.62467 292.47 4.10889 293.494 4.68994C294.545 5.24333 295.597 5.94889 296.648 6.80664C297.727 7.63672 298.585 8.59131 299.222 9.67041C300.688 12.133 301.421 14.7477 301.421 17.5146C301.421 20.2816 301.2 22.5505 300.757 24.3213C300.342 26.0645 299.637 27.7108 298.641 29.2603C296.482 32.6082 292.692 34.2822 287.268 34.2822L286.936 35.2368C288.68 35.9285 289.842 36.8831 290.423 38.1006C292.858 43.4131 294.656 46.7887 295.818 48.2275C296.98 49.6387 298.059 50.7731 299.056 51.6309C300.052 52.4886 301.477 53.3602 303.33 54.2456C305.184 55.131 306.305 55.7121 306.692 55.9888C307.08 56.2378 307.273 56.4453 307.273 56.6113C307.273 59.3783 307.647 62.9338 308.394 67.2778C309.141 71.6219 309.515 74.4165 309.515 75.6616C309.515 76.9067 309.459 77.806 309.349 78.3594C309.266 78.9128 309.058 79.4523 308.726 79.978C308.394 80.5314 307.91 80.8081 307.273 80.8081C306.637 80.8081 306.153 80.3516 305.821 79.4385C305.516 78.5254 305.364 77.4048 305.364 76.0767C305.364 74.7485 305.544 72.369 305.904 68.938C306.263 65.5347 306.443 62.9614 306.443 61.2183C306.443 57.7596 305.323 56.0303 303.081 56.0303C301.975 56.0303 301.145 56.224 300.591 56.6113C300.065 56.9987 299.803 57.7873 299.803 58.9771C299.803 60.1945 300.052 62.1175 300.55 64.7461C301.048 67.3747 301.297 69.353 301.297 70.6812C301.297 72.0369 300.785 72.7148 299.761 72.7148C298.737 72.7148 298.225 72.0369 298.225 70.6812ZM270.584 15.3979L260.789 15.6885C256.777 15.6885 254.162 15.0936 252.945 13.9038L252.073 14.6924C253.18 15.7715 253.733 17.1549 253.733 18.8428V21.6235C253.733 23.2837 253.18 24.6672 252.073 25.7739L252.945 26.604C254.135 25.3866 256.597 24.7778 260.332 24.7778L270.833 25.1514C273.628 25.1514 275.786 24.7917 277.308 24.0723C278.857 23.3252 279.632 21.9694 279.632 20.0049C279.632 18.7598 279.203 17.7913 278.345 17.0996C277.487 16.3802 276.45 15.9237 275.232 15.73C274.015 15.5086 272.465 15.3979 270.584 15.3979Z" fill="white"/>
<path d="M219.278 70.6812L220.191 62.0898C220.191 58.6035 218.767 55.9473 215.917 54.1211C213.094 52.2673 210.12 51.451 206.993 51.6724C203.867 51.866 201.681 52.9175 200.436 54.8267C199.799 55.7397 199.481 56.8188 199.481 58.064L199.274 69.187C199.274 70.7088 199.509 72.9639 199.979 75.9521C200.449 78.9681 200.685 81.237 200.685 82.7588C200.685 85.4427 199.924 86.7847 198.402 86.7847C196.88 86.7847 196.119 85.4842 196.119 82.8833C196.119 81.1678 196.368 78.7052 196.866 75.4956C197.364 72.286 197.641 69.8511 197.696 68.1909C197.779 66.5308 197.821 62.9891 197.821 57.5659C197.821 56.1271 197.378 54.467 196.493 52.5854C195.607 50.7039 194.21 48.1169 192.301 44.8242C190.392 41.5316 188.828 38.6263 187.611 36.1084L186.366 35.4028C185.702 36.6203 184.526 37.229 182.838 37.229L179.352 37.3535C176.972 37.3535 175.187 36.7725 173.998 35.6104L173.126 36.4404C173.209 37.4642 173.251 39.6501 173.251 42.998L173.209 53.1665C173.209 56.2101 173.264 58.4513 173.375 59.8901L174.164 65.9912C174.164 67.1256 173.776 67.6929 173.002 67.6929C172.227 67.6929 171.839 67.1672 171.839 66.1157L172.504 60.9692C172.504 59.7241 172.13 58.728 171.383 57.981C170.664 57.2616 169.709 56.9019 168.519 56.9019C167.357 56.9019 166.319 57.4137 165.406 58.4375C164.521 59.4889 164.078 60.8447 164.078 62.5049C164.078 64.165 164.383 66.4062 164.991 69.2285C165.6 72.0785 165.904 74.126 165.904 75.3711C165.904 77.972 164.977 79.2725 163.124 79.2725C161.27 79.2725 160.343 77.9997 160.343 75.4541C160.343 74.2643 160.606 72.1891 161.131 69.2285C161.685 66.2679 161.962 63.916 161.962 62.1729C161.962 60.4297 161.56 58.9909 160.758 57.8564C159.955 56.7497 159.042 56.1963 158.019 56.1963C156.995 56.1963 156.123 56.5422 155.404 57.2339C154.684 57.9533 154.325 58.8387 154.325 59.8901L155.445 69.7266C155.445 71.4144 154.823 72.2583 153.578 72.2583C152.333 72.2583 151.71 71.4006 151.71 69.6851C151.71 68.689 151.973 66.9458 152.499 64.4556C153.024 61.993 153.273 60.07 153.246 58.6865C153.218 57.3031 153.204 39.401 153.204 4.98047C153.204 3.26497 152.678 1.89535 151.627 0.871582L152.457 0.0415039C153.536 1.09294 154.906 1.61865 156.566 1.61865H193.754C199.564 1.61865 203.465 1.7985 205.458 2.1582C207.477 2.49023 209.234 2.84993 210.729 3.2373C212.25 3.62467 213.523 4.10889 214.547 4.68994C215.598 5.24333 216.65 5.94889 217.701 6.80664C218.78 7.63672 219.638 8.59131 220.275 9.67041C221.741 12.133 222.474 14.7477 222.474 17.5146C222.474 20.2816 222.253 22.5505 221.81 24.3213C221.395 26.0645 220.69 27.7108 219.693 29.2603C217.535 32.6082 213.745 34.2822 208.321 34.2822L207.989 35.2368C209.733 35.9285 210.895 36.8831 211.476 38.1006C213.911 43.4131 215.709 46.7887 216.871 48.2275C218.033 49.6387 219.112 50.7731 220.108 51.6309C221.105 52.4886 222.53 53.3602 224.383 54.2456C226.237 55.131 227.358 55.7121 227.745 55.9888C228.133 56.2378 228.326 56.4453 228.326 56.6113C228.326 59.3783 228.7 62.9338 229.447 67.2778C230.194 71.6219 230.567 74.4165 230.567 75.6616C230.567 76.9067 230.512 77.806 230.401 78.3594C230.318 78.9128 230.111 79.4523 229.779 79.978C229.447 80.5314 228.963 80.8081 228.326 80.8081C227.69 80.8081 227.206 80.3516 226.874 79.4385C226.569 78.5254 226.417 77.4048 226.417 76.0767C226.417 74.7485 226.597 72.369 226.957 68.938C227.316 65.5347 227.496 62.9614 227.496 61.2183C227.496 57.7596 226.376 56.0303 224.134 56.0303C223.028 56.0303 222.198 56.224 221.644 56.6113C221.118 56.9987 220.856 57.7873 220.856 58.9771C220.856 60.1945 221.105 62.1175 221.603 64.7461C222.101 67.3747 222.35 69.353 222.35 70.6812C222.35 72.0369 221.838 72.7148 220.814 72.7148C219.79 72.7148 219.278 72.0369 219.278 70.6812ZM191.637 15.3979L181.842 15.6885C177.83 15.6885 175.215 15.0936 173.998 13.9038L173.126 14.6924C174.233 15.7715 174.786 17.1549 174.786 18.8428V21.6235C174.786 23.2837 174.233 24.6672 173.126 25.7739L173.998 26.604C175.187 25.3866 177.65 24.7778 181.385 24.7778L191.886 25.1514C194.68 25.1514 196.839 24.7917 198.36 24.0723C199.91 23.3252 200.685 21.9694 200.685 20.0049C200.685 18.7598 200.256 17.7913 199.398 17.0996C198.54 16.3802 197.503 15.9237 196.285 15.73C195.068 15.5086 193.518 15.3979 191.637 15.3979Z" fill="white"/>
<path d="M112.233 63.7915L112.524 59.8071C112.524 59.1154 112.192 58.5758 111.528 58.1885C110.864 57.8288 110.144 57.6489 109.369 57.6489C108.595 57.6489 107.903 57.8564 107.294 58.2715C106.686 58.6865 106.381 59.2814 106.381 60.0562V69.6021C106.381 70.9855 106.672 73.0192 107.253 75.7031C107.834 78.387 108.124 80.2962 108.124 81.4307C108.124 82.5928 107.875 83.5474 107.377 84.2944C106.879 85.0415 106.187 85.415 105.302 85.415C104.444 85.415 103.794 85.0277 103.351 84.2529C102.909 83.4782 102.687 82.4683 102.687 81.2231C102.687 79.978 103.005 77.8198 103.642 74.7485C104.278 71.6772 104.596 69.2977 104.596 67.6099C104.596 60.7756 103.324 57.3584 100.778 57.3584C97.3471 57.3584 95.6316 57.2201 95.6316 56.9434V57.0264C95.6316 58.9355 96.0467 61.7301 96.8768 65.4102C97.7345 69.1178 98.1634 71.7741 98.1634 73.3789C98.1634 74.9837 97.8728 76.298 97.2918 77.3218C96.7107 78.3732 95.8115 78.8989 94.594 78.8989C93.4043 78.8989 92.4635 78.4009 91.7718 77.4048C91.1077 76.4087 90.7757 75.1082 90.7757 73.5034C90.7757 71.9263 91.1769 69.2008 91.9793 65.3271C92.7817 61.4811 93.1829 58.562 93.1829 56.5698C86.6253 54.4946 81.6863 51.1051 78.366 46.4014C75.0734 41.6976 73.427 35.887 73.427 28.9697C73.427 14.637 80.6487 5.58919 95.0921 1.82617C99.7682 0.608724 104.596 0 109.577 0C114.585 0 118.832 0.276693 122.319 0.830078C125.833 1.38346 129.222 2.36572 132.487 3.77686C135.78 5.16032 138.574 6.93115 140.871 9.08936C143.195 11.2199 145.049 13.9868 146.432 17.3901C147.816 20.7658 148.508 24.6257 148.508 28.9697C148.508 37.8239 146.017 44.6859 141.037 49.5557C136.056 54.3978 129.056 57.3722 120.036 58.479C119.925 58.6727 119.87 58.9771 119.87 59.3921L120.077 61.6748C120.077 63.0859 119.69 63.7915 118.915 63.7915C118.141 63.7915 117.753 63.1136 117.753 61.7578L117.878 59.4336C117.878 58.6035 117.283 58.1885 116.093 58.1885C115.982 58.4375 115.927 58.9079 115.927 59.5996L116.135 63.6255C116.135 64.4556 115.982 65.258 115.678 66.0327C115.374 66.8075 114.862 67.1948 114.142 67.1948C112.87 67.1948 112.233 66.0604 112.233 63.7915ZM96.5447 29.0112C96.5447 39.1382 101.359 44.2017 110.988 44.2017C120.617 44.2017 125.431 39.1382 125.431 29.0112C125.431 24.3628 124.186 20.8073 121.696 18.3447C119.206 15.8822 115.637 14.6509 110.988 14.6509C106.34 14.6509 102.77 15.8822 100.28 18.3447C97.7898 20.8073 96.5447 24.3628 96.5447 29.0112Z" fill="white"/>
<path d="M47.8955 16.6431L48.5596 7.18018C48.5596 4.35791 47.9093 2.29655 46.6089 0.996094L47.439 0.124512C48.5734 1.23128 49.9569 1.78467 51.5894 1.78467H66.2402C67.9004 1.78467 69.2839 1.23128 70.3906 0.124512L71.2207 0.996094C70.1416 2.0752 69.6021 3.45866 69.6021 5.14648V53.7061C69.6021 55.3662 70.1416 56.7497 71.2207 57.8564L70.3906 58.6865C69.3115 57.6074 67.9281 57.0679 66.2402 57.0679H51.5894C49.9015 57.0679 48.5181 57.6074 47.439 58.6865L46.6089 57.8564C47.6603 56.805 48.186 55.4216 48.186 53.7061L48.103 39.7607C48.103 38.1006 48.6287 36.731 49.6802 35.6519L48.8501 34.8218C47.7987 35.8732 46.4152 36.3989 44.6997 36.3989H27.6831C25.9953 36.3989 24.6118 35.8732 23.5327 34.8218L22.7026 35.6519C22.758 36.2882 22.7856 39.6362 22.7856 45.6958V64.4141C22.7856 66.932 23.1038 70.5013 23.7402 75.1221C24.3766 79.7428 24.6948 83.0078 24.6948 84.917C24.6948 86.8262 24.4596 88.1266 23.9893 88.8184C23.5465 89.5101 23.007 89.856 22.3706 89.856C21.7342 89.856 21.1808 89.5101 20.7104 88.8184C20.2677 88.1543 20.0464 87.4626 20.0464 86.7432C20.0464 86.0514 20.1847 84.4328 20.4614 81.8872C21.2915 74.1952 21.7065 68.4123 21.7065 64.5386C21.7065 62.6294 21.1255 60.9692 19.9634 59.5581C17.6945 56.8188 14.5817 55.4492 10.625 55.4492C8.60514 55.4492 6.90348 55.9196 5.52002 56.8604C4.16423 57.8011 3.48633 59.1016 3.48633 60.7617C3.48633 62.4495 3.74919 64.9121 4.2749 68.1494C4.82829 71.3867 5.10498 73.6279 5.10498 74.873C5.10498 77.4463 4.30257 78.7329 2.69775 78.7329C1.95068 78.7329 1.31429 78.4424 0.788574 77.8613C0.262858 77.3079 0 76.381 0 75.0806C0 73.8078 0.442708 71.5112 1.32812 68.1909C2.24121 64.8706 2.69775 62.2835 2.69775 60.4297V5.14648C2.69775 3.40332 2.17204 2.01986 1.12061 0.996094L1.90918 0.124512C3.04362 1.23128 4.42708 1.78467 6.05957 1.78467H20.9595C22.592 1.78467 23.9616 1.23128 25.0684 0.124512L25.9399 0.996094C24.6672 2.26888 24.0308 4.34408 24.0308 7.22168L24.6533 16.7676C24.6533 19.6175 24.0031 21.6927 22.7026 22.9932L23.5327 23.8647C24.6118 22.7856 25.9953 22.2461 27.6831 22.2461H44.8657C46.5535 22.2461 47.9232 22.7856 48.9746 23.8647L49.8462 22.9932C48.5457 21.665 47.8955 19.5483 47.8955 16.6431Z" fill="white"/>
</svg>
